<svg width="69" height="98" viewBox="0 0 69 98" fill="none" xmlns="http://www.w3.org/2000/svg">
<path d="M34.4932 4.43307H19.6383C15.6979 4.43307 11.9189 5.99838 9.13268 8.78463C6.34643 11.5709 4.78113 15.3498 4.78113 19.2902C4.78113 23.2306 6.34643 27.0095 9.13268 29.7958C11.9189 32.582 15.6979 34.1473 19.6383 34.1473H34.4932V4.43307Z" stroke="#A88AFF" stroke-width="7.98547"/>
<path d="M34.4932 34.1429H19.6383C15.6979 34.1429 11.9189 35.7082 9.13268 38.4944C6.34643 41.2807 4.78113 45.0597 4.78113 49C4.78113 52.9404 6.34643 56.7193 9.13268 59.5056C11.9189 62.2918 15.6979 63.8571 19.6383 63.8571H34.4932V34.1429Z" stroke="#A88AFF" stroke-width="7.98547"/>
<path d="M64.2074 49.0022C64.2074 52.9426 62.6421 56.7216 59.8558 59.5078C57.0696 62.2941 53.2906 63.8594 49.3503 63.8594C45.4099 63.8594 41.6309 62.2941 38.8447 59.5078C36.0584 56.7216 34.4931 52.9426 34.4931 49.0022C34.4931 45.0619 36.0584 41.2829 38.8447 38.4967C41.6309 35.7104 45.4099 34.1451 49.3503 34.1451C53.2906 34.1451 57.0696 35.7104 59.8558 38.4967C62.6421 41.2829 64.2074 45.0619 64.2074 49.0022ZM19.6382 63.8616H34.4931V78.7165C34.4922 81.6543 33.6203 84.5259 31.9875 86.9682C30.3546 89.4105 28.0343 91.3138 25.3199 92.4374C22.6054 93.5611 19.6187 93.8546 16.7375 93.281C13.8562 92.7073 11.2097 91.2921 9.13266 89.2145C7.05561 87.1368 5.64126 84.4899 5.06844 81.6084C4.49562 78.727 4.79006 75.7404 5.91452 73.0263C7.03898 70.3122 8.94297 67.9924 11.3858 66.3603C13.8285 64.7283 16.7004 63.8616 19.6382 63.8616Z" stroke="#A88AFF" stroke-width="7.98547"/>
<path d="M34.4932 4.43307H49.3481C53.2884 4.43307 57.0674 5.99838 59.8536 8.78463C62.6399 11.5709 64.2052 15.3498 64.2052 19.2902C64.2052 23.2306 62.6399 27.0095 59.8536 29.7958C57.0674 32.582 53.2884 34.1473 49.3481 34.1473H34.4932V4.43307Z" stroke="#A88AFF" stroke-width="7.98547"/>
</svg>
