<svg width="110" height="98" viewBox="0 0 110 98" fill="none" xmlns="http://www.w3.org/2000/svg">
<path d="M55.3257 39.4114C60.5512 39.4114 64.8128 43.673 64.8128 49C64.8128 54.0733 60.5512 58.3856 55.3257 58.3856C50.1001 58.3856 45.8385 54.0733 45.8385 49C45.8385 43.673 50.1001 39.4114 55.3257 39.4114ZM31.8361 89.5866C35.0323 91.5145 42.0335 88.572 50.1001 80.962C47.462 77.9687 44.8746 74.7218 42.4394 71.3226C38.3511 70.9314 34.2866 70.3217 30.2634 69.4962C27.676 80.3532 28.6399 87.811 31.8361 89.5866ZM35.4382 60.4657L33.9669 57.8783C33.4089 59.3496 32.8508 60.8208 32.4957 62.2414C33.8655 62.5458 35.3875 62.7994 36.9602 63.0531L35.4382 60.4657ZM68.6178 56.61L72.7272 49L68.6178 41.39C67.0958 38.7011 65.4723 36.3167 64.0011 33.9322C61.2615 33.78 58.3697 33.78 55.3257 33.78C52.2817 33.78 49.3899 33.78 46.6503 33.9322C45.179 36.3167 43.5555 38.7011 42.0335 41.39L37.9241 49L42.0335 56.61C43.5555 59.2988 45.179 61.6833 46.6503 64.0678C49.3899 64.22 52.2817 64.22 55.3257 64.22C58.3697 64.22 61.2615 64.22 64.0011 64.0678C65.4723 61.6833 67.0958 59.2988 68.6178 56.61ZM55.3257 22.5172C54.3617 23.6333 53.3471 24.8002 52.3324 26.17H58.3189C57.3043 24.8002 56.2896 23.6333 55.3257 22.5172ZM55.3257 75.4828C56.2896 74.3666 57.3043 73.1998 58.3189 71.83H52.3324C53.3471 73.1998 54.3617 74.3666 55.3257 75.4828ZM78.7644 8.41334C75.619 6.48547 68.6178 9.428 60.5512 17.038C63.1893 20.0313 65.7767 23.2782 68.2119 26.6773C72.372 27.0832 76.4814 27.692 80.3879 28.5037C82.9753 17.6468 82.0114 10.189 78.7644 8.41334ZM75.2131 37.5343L76.6844 40.1217C77.2424 38.6504 77.8005 37.1791 78.1556 35.7586C76.7858 35.4542 75.2638 35.2005 73.6911 34.9469L75.2131 37.5343ZM82.5694 1.76727C90.0272 6.02887 90.839 17.2409 87.6935 30.3301C100.58 34.1351 109.864 40.4261 109.864 49C109.864 57.5739 100.58 63.8648 87.6935 67.6698C90.839 80.759 90.0272 91.9711 82.5694 96.2327C75.1624 100.494 65.0664 95.6239 55.3257 86.3397C45.5849 95.6239 35.4889 100.494 28.0311 96.2327C20.6241 91.9711 19.8123 80.759 22.9578 67.6698C10.0715 63.8648 0.787354 57.5739 0.787354 49C0.787354 40.4261 10.0715 34.1351 22.9578 30.3301C19.8123 17.2409 20.6241 6.02887 28.0311 1.76727C35.4889 -2.49432 45.5849 2.37607 55.3257 11.6603C65.0664 2.37607 75.1624 -2.49432 82.5694 1.76727ZM81.0982 49C82.8231 52.805 84.3451 56.61 85.6134 60.4657C96.2674 57.2695 102.254 52.7035 102.254 49C102.254 45.2964 96.2674 40.7305 85.6134 37.5343C84.3451 41.39 82.8231 45.195 81.0982 49ZM29.5531 49C27.8282 45.195 26.3062 41.39 25.0379 37.5343C14.3839 40.7305 8.39735 45.2964 8.39735 49C8.39735 52.7035 14.3839 57.2695 25.0379 60.4657C26.3062 56.61 27.8282 52.805 29.5531 49ZM75.2131 60.4657L73.6911 63.0531C75.2638 62.7994 76.7858 62.5458 78.1556 62.2414C77.8005 60.8208 77.2424 59.3496 76.6844 57.8783L75.2131 60.4657ZM60.5512 80.962C68.6178 88.572 75.619 91.5145 78.7644 89.5866C82.0114 87.811 82.9753 80.3532 80.3879 69.4962C76.4814 70.308 72.372 70.9168 68.2119 71.3226C65.7767 74.7218 63.1893 77.9687 60.5512 80.962ZM35.4382 37.5343L36.9602 34.9469C35.3875 35.2005 33.8655 35.4542 32.4957 35.7586C32.8508 37.1791 33.4089 38.6504 33.9669 40.1217L35.4382 37.5343ZM50.1001 17.038C42.0335 9.428 35.0323 6.48547 31.8361 8.41334C28.6399 10.189 27.676 17.6468 30.2634 28.5037C34.2866 27.6783 38.3511 27.0686 42.4394 26.6773C44.8746 23.2782 47.462 20.0313 50.1001 17.038Z" fill="#A88AFF"/>
</svg>
